<svg id="visual" viewBox="0 0 900 600" width="900" height="600" xmlns="http://www.w3.org/2000/svg" xmlns:xlink="http://www.w3.org/1999/xlink" version="1.1"><rect x="0" y="0" width="900" height="600" fill="#001220"></rect><path d="M0 326L37.5 322.8C75 319.7 150 313.3 225 314.8C300 316.3 375 325.7 450 333.5C525 341.3 600 347.7 675 355.2C750 362.7 825 371.3 862.5 375.7L900 380L900 0L862.5 0C825 0 750 0 675 0C600 0 525 0 450 0C375 0 300 0 225 0C150 0 75 0 37.5 0L0 0Z" fill="#0f1634"></path><path d="M0 348L37.5 336.8C75 325.7 150 303.3 225 296.5C300 289.7 375 298.3 450 295.8C525 293.3 600 279.7 675 281C750 282.3 825 298.7 862.5 306.8L900 315L900 0L862.5 0C825 0 750 0 675 0C600 0 525 0 450 0C375 0 300 0 225 0C150 0 75 0 37.5 0L0 0Z" fill="#1a193d"></path><path d="M0 244L37.5 244.5C75 245 150 246 225 257.3C300 268.7 375 290.3 450 292.2C525 294 600 276 675 264.8C750 253.7 825 249.3 862.5 247.2L900 245L900 0L862.5 0C825 0 750 0 675 0C600 0 525 0 450 0C375 0 300 0 225 0C150 0 75 0 37.5 0L0 0Z" fill="#271c45"></path><path d="M0 243L37.5 250C75 257 150 271 225 273.5C300 276 375 267 450 257.8C525 248.7 600 239.3 675 233.3C750 227.3 825 224.7 862.5 223.3L900 222L900 0L862.5 0C825 0 750 0 675 0C600 0 525 0 450 0C375 0 300 0 225 0C150 0 75 0 37.5 0L0 0Z" fill="#351f4d"></path><path d="M0 184L37.5 194.2C75 204.3 150 224.7 225 233.8C300 243 375 241 450 231.3C525 221.7 600 204.3 675 198C750 191.7 825 196.3 862.5 198.7L900 201L900 0L862.5 0C825 0 750 0 675 0C600 0 525 0 450 0C375 0 300 0 225 0C150 0 75 0 37.5 0L0 0Z" fill="#432053"></path><path d="M0 210L37.5 207.2C75 204.3 150 198.7 225 190.5C300 182.3 375 171.7 450 171.8C525 172 600 183 675 187.2C750 191.3 825 188.7 862.5 187.3L900 186L900 0L862.5 0C825 0 750 0 675 0C600 0 525 0 450 0C375 0 300 0 225 0C150 0 75 0 37.5 0L0 0Z" fill="#522158"></path><path d="M0 178L37.5 174.7C75 171.3 150 164.7 225 163.5C300 162.3 375 166.7 450 167.3C525 168 600 165 675 165.2C750 165.3 825 168.7 862.5 170.3L900 172L900 0L862.5 0C825 0 750 0 675 0C600 0 525 0 450 0C375 0 300 0 225 0C150 0 75 0 37.5 0L0 0Z" fill="#62215c"></path><path d="M0 130L37.5 127.3C75 124.7 150 119.3 225 121.5C300 123.7 375 133.3 450 133.8C525 134.3 600 125.7 675 119C750 112.3 825 107.7 862.5 105.3L900 103L900 0L862.5 0C825 0 750 0 675 0C600 0 525 0 450 0C375 0 300 0 225 0C150 0 75 0 37.5 0L0 0Z" fill="#71205e"></path><path d="M0 98L37.5 95.8C75 93.7 150 89.3 225 87.2C300 85 375 85 450 83.8C525 82.7 600 80.3 675 82.8C750 85.3 825 92.7 862.5 96.3L900 100L900 0L862.5 0C825 0 750 0 675 0C600 0 525 0 450 0C375 0 300 0 225 0C150 0 75 0 37.5 0L0 0Z" fill="#811f5f"></path><path d="M0 55L37.5 55.3C75 55.7 150 56.3 225 59.7C300 63 375 69 450 71.2C525 73.3 600 71.7 675 69.8C750 68 825 66 862.5 65L900 64L900 0L862.5 0C825 0 750 0 675 0C600 0 525 0 450 0C375 0 300 0 225 0C150 0 75 0 37.5 0L0 0Z" fill="#911e5f"></path><path d="M0 44L37.5 42.8C75 41.7 150 39.3 225 36.7C300 34 375 31 450 32.3C525 33.7 600 39.3 675 38.7C750 38 825 31 862.5 27.5L900 24L900 0L862.5 0C825 0 750 0 675 0C600 0 525 0 450 0C375 0 300 0 225 0C150 0 75 0 37.5 0L0 0Z" fill="#a01d5d"></path></svg>