<svg id="visual" viewBox="0 0 900 600" width="900" height="600" xmlns="http://www.w3.org/2000/svg" xmlns:xlink="http://www.w3.org/1999/xlink" version="1.1"><rect x="0" y="0" width="900" height="600" fill="#001220"></rect><path d="M0 272L37.5 275.2C75 278.3 150 284.7 225 283.2C300 281.7 375 272.3 450 264.5C525 256.7 600 250.3 675 242.8C750 235.3 825 226.7 862.5 222.3L900 218L900 601L862.5 601C825 601 750 601 675 601C600 601 525 601 450 601C375 601 300 601 225 601C150 601 75 601 37.5 601L0 601Z" fill="#0f1634"></path><path d="M0 250L37.5 261.2C75 272.3 150 294.7 225 301.5C300 308.3 375 299.7 450 302.2C525 304.7 600 318.3 675 317C750 315.7 825 299.3 862.5 291.2L900 283L900 601L862.5 601C825 601 750 601 675 601C600 601 525 601 450 601C375 601 300 601 225 601C150 601 75 601 37.5 601L0 601Z" fill="#1a193d"></path><path d="M0 354L37.5 353.5C75 353 150 352 225 340.7C300 329.3 375 307.7 450 305.8C525 304 600 322 675 333.2C750 344.3 825 348.7 862.5 350.8L900 353L900 601L862.5 601C825 601 750 601 675 601C600 601 525 601 450 601C375 601 300 601 225 601C150 601 75 601 37.5 601L0 601Z" fill="#271c45"></path><path d="M0 355L37.5 348C75 341 150 327 225 324.5C300 322 375 331 450 340.2C525 349.3 600 358.7 675 364.7C750 370.7 825 373.3 862.5 374.7L900 376L900 601L862.5 601C825 601 750 601 675 601C600 601 525 601 450 601C375 601 300 601 225 601C150 601 75 601 37.5 601L0 601Z" fill="#351f4d"></path><path d="M0 414L37.5 403.8C75 393.7 150 373.3 225 364.2C300 355 375 357 450 366.7C525 376.3 600 393.7 675 400C750 406.3 825 401.7 862.5 399.3L900 397L900 601L862.5 601C825 601 750 601 675 601C600 601 525 601 450 601C375 601 300 601 225 601C150 601 75 601 37.5 601L0 601Z" fill="#432053"></path><path d="M0 388L37.5 390.8C75 393.7 150 399.3 225 407.5C300 415.7 375 426.3 450 426.2C525 426 600 415 675 410.8C750 406.7 825 409.3 862.5 410.7L900 412L900 601L862.5 601C825 601 750 601 675 601C600 601 525 601 450 601C375 601 300 601 225 601C150 601 75 601 37.5 601L0 601Z" fill="#522158"></path><path d="M0 420L37.5 423.3C75 426.7 150 433.3 225 434.5C300 435.7 375 431.3 450 430.7C525 430 600 433 675 432.8C750 432.7 825 429.3 862.5 427.7L900 426L900 601L862.5 601C825 601 750 601 675 601C600 601 525 601 450 601C375 601 300 601 225 601C150 601 75 601 37.5 601L0 601Z" fill="#62215c"></path><path d="M0 468L37.5 470.7C75 473.3 150 478.7 225 476.5C300 474.3 375 464.7 450 464.2C525 463.7 600 472.3 675 479C750 485.7 825 490.3 862.5 492.7L900 495L900 601L862.5 601C825 601 750 601 675 601C600 601 525 601 450 601C375 601 300 601 225 601C150 601 75 601 37.5 601L0 601Z" fill="#71205e"></path><path d="M0 500L37.5 502.2C75 504.3 150 508.7 225 510.8C300 513 375 513 450 514.2C525 515.3 600 517.7 675 515.2C750 512.7 825 505.3 862.5 501.7L900 498L900 601L862.5 601C825 601 750 601 675 601C600 601 525 601 450 601C375 601 300 601 225 601C150 601 75 601 37.5 601L0 601Z" fill="#811f5f"></path><path d="M0 543L37.5 542.7C75 542.3 150 541.7 225 538.3C300 535 375 529 450 526.8C525 524.7 600 526.3 675 528.2C750 530 825 532 862.5 533L900 534L900 601L862.5 601C825 601 750 601 675 601C600 601 525 601 450 601C375 601 300 601 225 601C150 601 75 601 37.5 601L0 601Z" fill="#911e5f"></path><path d="M0 554L37.5 555.2C75 556.3 150 558.7 225 561.3C300 564 375 567 450 565.7C525 564.3 600 558.7 675 559.3C750 560 825 567 862.5 570.5L900 574L900 601L862.5 601C825 601 750 601 675 601C600 601 525 601 450 601C375 601 300 601 225 601C150 601 75 601 37.5 601L0 601Z" fill="#a01d5d"></path></svg>