<svg id="visual" viewBox="0 0 540 960" width="540" height="960" xmlns="http://www.w3.org/2000/svg" xmlns:xlink="http://www.w3.org/1999/xlink" version="1.1"><path d="M0 30L15 31.5C30 33 60 36 90 40.8C120 45.7 150 52.3 180 52.3C210 52.3 240 45.7 270 40.8C300 36 330 33 360 34.7C390 36.3 420 42.7 450 42.7C480 42.7 510 36.3 525 33.2L540 30L540 0L525 0C510 0 480 0 450 0C420 0 390 0 360 0C330 0 300 0 270 0C240 0 210 0 180 0C150 0 120 0 90 0C60 0 30 0 15 0L0 0Z" fill="#a01d5d"></path><path d="M0 135L15 138.3C30 141.7 60 148.3 90 150C120 151.7 150 148.3 180 138.7C210 129 240 113 270 114.7C300 116.3 330 135.7 360 143.7C390 151.7 420 148.3 450 138.7C480 129 510 113 525 105L540 97L540 28L525 31.2C510 34.3 480 40.7 450 40.7C420 40.7 390 34.3 360 32.7C330 31 300 34 270 38.8C240 43.7 210 50.3 180 50.3C150 50.3 120 43.7 90 38.8C60 34 30 31 15 29.5L0 28Z" fill="#7d205f"></path><path d="M0 203L15 209.3C30 215.7 60 228.3 90 233C120 237.7 150 234.3 180 218.3C210 202.3 240 173.7 270 169C300 164.3 330 183.7 360 190C390 196.3 420 189.7 450 184.8C480 180 510 177 525 175.5L540 174L540 95L525 103C510 111 480 127 450 136.7C420 146.3 390 149.7 360 141.7C330 133.7 300 114.3 270 112.7C240 111 210 127 180 136.7C150 146.3 120 149.7 90 148C60 146.3 30 139.7 15 136.3L0 133Z" fill="#59215a"></path><path d="M0 318L15 327.5C30 337 60 356 90 372C120 388 150 401 180 402.7C210 404.3 240 394.7 270 378.7C300 362.7 330 340.3 360 334C390 327.7 420 337.3 450 342.2C480 347 510 347 525 347L540 347L540 172L525 173.5C510 175 480 178 450 182.8C420 187.7 390 194.3 360 188C330 181.7 300 162.3 270 167C240 171.7 210 200.3 180 216.3C150 232.3 120 235.7 90 231C60 226.3 30 213.7 15 207.3L0 201Z" fill="#371f4e"></path><path d="M0 356L15 368.8C30 381.7 60 407.3 90 423.3C120 439.3 150 445.7 180 450.5C210 455.3 240 458.7 270 444.3C300 430 330 398 360 386.8C390 375.7 420 385.3 450 394.8C480 404.3 510 413.7 525 418.3L540 423L540 345L525 345C510 345 480 345 450 340.2C420 335.3 390 325.7 360 332C330 338.3 300 360.7 270 376.7C240 392.7 210 402.3 180 400.7C150 399 120 386 90 370C60 354 30 335 15 325.5L0 316Z" fill="#19193c"></path><path d="M0 644L15 644C30 644 60 644 90 636C120 628 150 612 180 612C210 612 240 628 270 632.8C300 637.7 330 631.3 360 633C390 634.7 420 644.3 450 649.2C480 654 510 654 525 654L540 654L540 421L525 416.3C510 411.7 480 402.3 450 392.8C420 383.3 390 373.7 360 384.8C330 396 300 428 270 442.3C240 456.7 210 453.3 180 448.5C150 443.7 120 437.3 90 421.3C60 405.3 30 379.7 15 366.8L0 354Z" fill="#0f1634"></path><path d="M0 692L15 690.5C30 689 60 686 90 678C120 670 150 657 180 660.2C210 663.3 240 682.7 270 689.2C300 695.7 330 689.3 360 687.7C390 686 420 689 450 692.2C480 695.3 510 698.7 525 700.3L540 702L540 652L525 652C510 652 480 652 450 647.2C420 642.3 390 632.7 360 631C330 629.3 300 635.7 270 630.8C240 626 210 610 180 610C150 610 120 626 90 634C60 642 30 642 15 642L0 642Z" fill="#0f1634"></path><path d="M0 711L15 712.7C30 714.3 60 717.7 90 713C120 708.3 150 695.7 180 698.8C210 702 240 721 270 727.3C300 733.7 330 727.3 360 725.8C390 724.3 420 727.7 450 730.8C480 734 510 737 525 738.5L540 740L540 700L525 698.3C510 696.7 480 693.3 450 690.2C420 687 390 684 360 685.7C330 687.3 300 693.7 270 687.2C240 680.7 210 661.3 180 658.2C150 655 120 668 90 676C60 684 30 687 15 688.5L0 690Z" fill="#19193c"></path><path d="M0 740L15 743.2C30 746.3 60 752.7 90 749.5C120 746.3 150 733.7 180 737C210 740.3 240 759.7 270 766C300 772.3 330 765.7 360 765.7C390 765.7 420 772.3 450 772.3C480 772.3 510 765.7 525 762.3L540 759L540 738L525 736.5C510 735 480 732 450 728.8C420 725.7 390 722.3 360 723.8C330 725.3 300 731.7 270 725.3C240 719 210 700 180 696.8C150 693.7 120 706.3 90 711C60 715.7 30 712.3 15 710.7L0 709Z" fill="#371f4e"></path><path d="M0 788L15 788C30 788 60 788 90 781.7C120 775.3 150 762.7 180 765.8C210 769 240 788 270 799.2C300 810.3 330 813.7 360 817C390 820.3 420 823.7 450 822C480 820.3 510 813.7 525 810.3L540 807L540 757L525 760.3C510 763.7 480 770.3 450 770.3C420 770.3 390 763.7 360 763.7C330 763.7 300 770.3 270 764C240 757.7 210 738.3 180 735C150 731.7 120 744.3 90 747.5C60 750.7 30 744.3 15 741.2L0 738Z" fill="#59215a"></path><path d="M0 865L15 865C30 865 60 865 90 858.7C120 852.3 150 839.7 180 838C210 836.3 240 845.7 270 855.2C300 864.7 330 874.3 360 880.8C390 887.3 420 890.7 450 884.3C480 878 510 862 525 854L540 846L540 805L525 808.3C510 811.7 480 818.3 450 820C420 821.7 390 818.3 360 815C330 811.7 300 808.3 270 797.2C240 786 210 767 180 763.8C150 760.7 120 773.3 90 779.7C60 786 30 786 15 786L0 786Z" fill="#7d205f"></path><path d="M0 961L15 961C30 961 60 961 90 961C120 961 150 961 180 961C210 961 240 961 270 961C300 961 330 961 360 961C390 961 420 961 450 961C480 961 510 961 525 961L540 961L540 844L525 852C510 860 480 876 450 882.3C420 888.7 390 885.3 360 878.8C330 872.3 300 862.7 270 853.2C240 843.7 210 834.3 180 836C150 837.7 120 850.3 90 856.7C60 863 30 863 15 863L0 863Z" fill="#a01d5d"></path></svg>