<svg id="visual" viewBox="0 0 960 540" width="960" height="540" xmlns="http://www.w3.org/2000/svg" xmlns:xlink="http://www.w3.org/1999/xlink" version="1.1"><path d="M0 17L26.7 18C53.3 19 106.7 21 160 23.7C213.3 26.3 266.7 29.7 320 29.7C373.3 29.7 426.7 26.3 480 23.7C533.3 21 586.7 19 640 19.8C693.3 20.7 746.7 24.3 800 24.3C853.3 24.3 906.7 20.7 933.3 18.8L960 17L960 0L933.3 0C906.7 0 853.3 0 800 0C746.7 0 693.3 0 640 0C586.7 0 533.3 0 480 0C426.7 0 373.3 0 320 0C266.7 0 213.3 0 160 0C106.7 0 53.3 0 26.7 0L0 0Z" fill="#a01d5d"></path><path d="M0 77L26.7 78.7C53.3 80.3 106.7 83.7 160 84.5C213.3 85.3 266.7 83.7 320 78.3C373.3 73 426.7 64 480 64.8C533.3 65.7 586.7 76.3 640 80.8C693.3 85.3 746.7 83.7 800 78.3C853.3 73 906.7 64 933.3 59.5L960 55L960 15L933.3 16.8C906.7 18.7 853.3 22.3 800 22.3C746.7 22.3 693.3 18.7 640 17.8C586.7 17 533.3 19 480 21.7C426.7 24.3 373.3 27.7 320 27.7C266.7 27.7 213.3 24.3 160 21.7C106.7 19 53.3 17 26.7 16L0 15Z" fill="#7d205f"></path><path d="M0 114L26.7 117.7C53.3 121.3 106.7 128.7 160 131.5C213.3 134.3 266.7 132.7 320 123.7C373.3 114.7 426.7 98.3 480 95.5C533.3 92.7 586.7 103.3 640 107C693.3 110.7 746.7 107.3 800 104.7C853.3 102 906.7 100 933.3 99L960 98L960 53L933.3 57.5C906.7 62 853.3 71 800 76.3C746.7 81.7 693.3 83.3 640 78.8C586.7 74.3 533.3 63.7 480 62.8C426.7 62 373.3 71 320 76.3C266.7 81.7 213.3 83.3 160 82.5C106.7 81.7 53.3 78.3 26.7 76.7L0 75Z" fill="#59215a"></path><path d="M0 179L26.7 184.5C53.3 190 106.7 201 160 210C213.3 219 266.7 226 320 226.8C373.3 227.7 426.7 222.3 480 213.3C533.3 204.3 586.7 191.7 640 188C693.3 184.3 746.7 189.7 800 192.3C853.3 195 906.7 195 933.3 195L960 195L960 96L933.3 97C906.7 98 853.3 100 800 102.7C746.7 105.3 693.3 108.7 640 105C586.7 101.3 533.3 90.7 480 93.5C426.7 96.3 373.3 112.7 320 121.7C266.7 130.7 213.3 132.3 160 129.5C106.7 126.7 53.3 119.3 26.7 115.7L0 112Z" fill="#371f4e"></path><path d="M0 201L26.7 208.2C53.3 215.3 106.7 229.7 160 238.7C213.3 247.7 266.7 251.3 320 254C373.3 256.7 426.7 258.3 480 250.2C533.3 242 586.7 224 640 217.7C693.3 211.3 746.7 216.7 800 222.2C853.3 227.7 906.7 233.3 933.3 236.2L960 239L960 193L933.3 193C906.7 193 853.3 193 800 190.3C746.7 187.7 693.3 182.3 640 186C586.7 189.7 533.3 202.3 480 211.3C426.7 220.3 373.3 225.7 320 224.8C266.7 224 213.3 217 160 208C106.7 199 53.3 188 26.7 182.5L0 177Z" fill="#19193c"></path><path d="M0 363L26.7 363C53.3 363 106.7 363 160 358.5C213.3 354 266.7 345 320 345C373.3 345 426.7 354 480 356.7C533.3 359.3 586.7 355.7 640 356.5C693.3 357.3 746.7 362.7 800 365.3C853.3 368 906.7 368 933.3 368L960 368L960 237L933.3 234.2C906.7 231.3 853.3 225.7 800 220.2C746.7 214.7 693.3 209.3 640 215.7C586.7 222 533.3 240 480 248.2C426.7 256.3 373.3 254.7 320 252C266.7 249.3 213.3 245.7 160 236.7C106.7 227.7 53.3 213.3 26.7 206.2L0 199Z" fill="#0f1634"></path><path d="M0 390L26.7 389C53.3 388 106.7 386 160 381.5C213.3 377 266.7 370 320 371.8C373.3 373.7 426.7 384.3 480 387.8C533.3 391.3 586.7 387.7 640 386.8C693.3 386 746.7 388 800 389.8C853.3 391.7 906.7 393.3 933.3 394.2L960 395L960 366L933.3 366C906.7 366 853.3 366 800 363.3C746.7 360.7 693.3 355.3 640 354.5C586.7 353.7 533.3 357.3 480 354.7C426.7 352 373.3 343 320 343C266.7 343 213.3 352 160 356.5C106.7 361 53.3 361 26.7 361L0 361Z" fill="#0f1634"></path><path d="M0 401L26.7 401.8C53.3 402.7 106.7 404.3 160 401.5C213.3 398.7 266.7 391.3 320 393.2C373.3 395 426.7 406 480 409.7C533.3 413.3 586.7 409.7 640 408.7C693.3 407.7 746.7 409.3 800 411.2C853.3 413 906.7 415 933.3 416L960 417L960 393L933.3 392.2C906.7 391.3 853.3 389.7 800 387.8C746.7 386 693.3 384 640 384.8C586.7 385.7 533.3 389.3 480 385.8C426.7 382.3 373.3 371.7 320 369.8C266.7 368 213.3 375 160 379.5C106.7 384 53.3 386 26.7 387L0 388Z" fill="#19193c"></path><path d="M0 417L26.7 418.8C53.3 420.7 106.7 424.3 160 422.5C213.3 420.7 266.7 413.3 320 415C373.3 416.7 426.7 427.3 480 431C533.3 434.7 586.7 431.3 640 431.3C693.3 431.3 746.7 434.7 800 434.7C853.3 434.7 906.7 431.3 933.3 429.7L960 428L960 415L933.3 414C906.7 413 853.3 411 800 409.2C746.7 407.3 693.3 405.7 640 406.7C586.7 407.7 533.3 411.3 480 407.7C426.7 404 373.3 393 320 391.2C266.7 389.3 213.3 396.7 160 399.5C106.7 402.3 53.3 400.7 26.7 399.8L0 399Z" fill="#371f4e"></path><path d="M0 444L26.7 444C53.3 444 106.7 444 160 440.3C213.3 436.7 266.7 429.3 320 431.2C373.3 433 426.7 444 480 450.3C533.3 456.7 586.7 458.3 640 460C693.3 461.7 746.7 463.3 800 462.5C853.3 461.7 906.7 458.3 933.3 456.7L960 455L960 426L933.3 427.7C906.7 429.3 853.3 432.7 800 432.7C746.7 432.7 693.3 429.3 640 429.3C586.7 429.3 533.3 432.7 480 429C426.7 425.3 373.3 414.7 320 413C266.7 411.3 213.3 418.7 160 420.5C106.7 422.3 53.3 418.7 26.7 416.8L0 415Z" fill="#59215a"></path><path d="M0 487L26.7 487C53.3 487 106.7 487 160 483.3C213.3 479.7 266.7 472.3 320 471.5C373.3 470.7 426.7 476.3 480 481.8C533.3 487.3 586.7 492.7 640 496.2C693.3 499.7 746.7 501.3 800 497.7C853.3 494 906.7 485 933.3 480.5L960 476L960 453L933.3 454.7C906.7 456.3 853.3 459.7 800 460.5C746.7 461.3 693.3 459.7 640 458C586.7 456.3 533.3 454.7 480 448.3C426.7 442 373.3 431 320 429.2C266.7 427.3 213.3 434.7 160 438.3C106.7 442 53.3 442 26.7 442L0 442Z" fill="#7d205f"></path><path d="M0 541L26.7 541C53.3 541 106.7 541 160 541C213.3 541 266.7 541 320 541C373.3 541 426.7 541 480 541C533.3 541 586.7 541 640 541C693.3 541 746.7 541 800 541C853.3 541 906.7 541 933.3 541L960 541L960 474L933.3 478.5C906.7 483 853.3 492 800 495.7C746.7 499.3 693.3 497.7 640 494.2C586.7 490.7 533.3 485.3 480 479.8C426.7 474.3 373.3 468.7 320 469.5C266.7 470.3 213.3 477.7 160 481.3C106.7 485 53.3 485 26.7 485L0 485Z" fill="#a01d5d"></path></svg>